<svg xmlns="http://www.w3.org/2000/svg" width="127" height="29" viewBox="0 0 127 29" fill="none"><path d="M55.006 23V7.478H49.702V4.8H63.664V7.478H58.334V23H55.006ZM69.9034 23.312C68.6554 23.312 67.5287 23.026 66.5234 22.454C65.5354 21.882 64.7467 21.0933 64.1574 20.088C63.5854 19.0653 63.2994 17.8867 63.2994 16.552C63.2994 15.2173 63.5941 14.0473 64.1834 13.042C64.7727 12.0193 65.5614 11.222 66.5494 10.65C67.5547 10.078 68.6814 9.792 69.9294 9.792C71.1601 9.792 72.2694 10.078 73.2574 10.65C74.2627 11.222 75.0514 12.0193 75.6234 13.042C76.2127 14.0473 76.5074 15.2173 76.5074 16.552C76.5074 17.8867 76.2127 19.0653 75.6234 20.088C75.0514 21.0933 74.2627 21.882 73.2574 22.454C72.2521 23.026 71.1341 23.312 69.9034 23.312ZM69.9034 20.426C70.7701 20.426 71.5241 20.1053 72.1654 19.464C72.8067 18.8053 73.1274 17.8347 73.1274 16.552C73.1274 15.2693 72.8067 14.3073 72.1654 13.666C71.5241 13.0073 70.7787 12.678 69.9294 12.678C69.0454 12.678 68.2827 13.0073 67.6414 13.666C67.0174 14.3073 66.7054 15.2693 66.7054 16.552C66.7054 17.8347 67.0174 18.8053 67.6414 19.464C68.2827 20.1053 69.0367 20.426 69.9034 20.426ZM84.319 23.312C82.707 23.312 81.459 22.8093 80.575 21.804C79.7083 20.7987 79.275 19.3253 79.275 17.384V10.104H82.577V17.072C82.577 18.1813 82.8023 19.0307 83.253 19.62C83.7036 20.2093 84.4143 20.504 85.385 20.504C86.3036 20.504 87.0576 20.1747 87.647 19.516C88.2536 18.8573 88.557 17.9387 88.557 16.76V10.104H91.885V23H88.947L88.687 20.816C88.2883 21.5787 87.7076 22.1853 86.945 22.636C86.1996 23.0867 85.3243 23.312 84.319 23.312ZM95.3013 23V10.104H98.2653L98.5773 12.522C99.0453 11.69 99.678 11.0313 100.475 10.546C101.29 10.0433 102.243 9.792 103.335 9.792V13.302H102.399C101.671 13.302 101.021 13.4147 100.449 13.64C99.8773 13.8653 99.4267 14.2553 99.0973 14.81C98.7853 15.3647 98.6293 16.136 98.6293 17.124V23H95.3013ZM107.404 8.102C106.797 8.102 106.295 7.92 105.896 7.556C105.515 7.192 105.324 6.73267 105.324 6.178C105.324 5.62333 105.515 5.17267 105.896 4.826C106.295 4.462 106.797 4.28 107.404 4.28C108.011 4.28 108.505 4.462 108.886 4.826C109.285 5.17267 109.484 5.62333 109.484 6.178C109.484 6.73267 109.285 7.192 108.886 7.556C108.505 7.92 108.011 8.102 107.404 8.102ZM105.74 23V10.104H109.068V23H105.74ZM118.73 23.312C117.482 23.312 116.355 23.026 115.35 22.454C114.362 21.882 113.573 21.0933 112.984 20.088C112.412 19.0653 112.126 17.8867 112.126 16.552C112.126 15.2173 112.42 14.0473 113.01 13.042C113.599 12.0193 114.388 11.222 115.376 10.65C116.381 10.078 117.508 9.792 118.756 9.792C119.986 9.792 121.096 10.078 122.084 10.65C123.089 11.222 123.878 12.0193 124.45 13.042C125.039 14.0473 125.334 15.2173 125.334 16.552C125.334 17.8867 125.039 19.0653 124.45 20.088C123.878 21.0933 123.089 21.882 122.084 22.454C121.078 23.026 119.96 23.312 118.73 23.312ZM118.73 20.426C119.596 20.426 120.35 20.1053 120.992 19.464C121.633 18.8053 121.954 17.8347 121.954 16.552C121.954 15.2693 121.633 14.3073 120.992 13.666C120.35 13.0073 119.605 12.678 118.756 12.678C117.872 12.678 117.109 13.0073 116.468 13.666C115.844 14.3073 115.532 15.2693 115.532 16.552C115.532 17.8347 115.844 18.8053 116.468 19.464C117.109 20.1053 117.863 20.426 118.73 20.426Z" fill="white"></path><path fill-rule="evenodd" clip-rule="evenodd" d="M20.8817 4.75101L28.5025 16.5483L40 0.486435H29.0651L25.2405 5.6247L26.3089 7.28236L29.8877 2.4794H36.303L28.5735 13.2802L20.0024 0L11.4265 13.2802L3.69696 2.4794H10.1123L13.6911 7.28709L14.7595 5.6247L10.9349 0.486435H0L11.5022 16.5483L19.1183 4.75101V24.0195L13.4216 16.0618L12.3437 17.7289L20.0024 28.4211L27.6563 17.7289L26.5784 16.0618L20.8817 24.0195V4.75101Z" fill="url(#paint0_linear_1_2)"></path><defs><linearGradient id="paint0_linear_1_2" x1="6.5" y1="4.26302" x2="26.885" y2="30.5225" gradientUnits="userSpaceOnUse"><stop stop-color="white"></stop><stop offset="1" stop-color="white"></stop></linearGradient></defs></svg>