<svg xmlns="http://www.w3.org/2000/svg" width="248" height="212" viewBox="0 0 247.596 211.058"><g fill="#2761ae"><path d="M237.822 210.532H11.44c-5.113 0-9.273-4.16-9.273-9.272v-13.642a9.17 9.17 0 0 1 .885-3.944h-.216L122.4 2.63c.7-.877 1.51-1.06 2.066-1.06 1.886 0 3.533 2.122 3.714 2.364l118.252 179.74h-.213c.582 1.228.885 2.565.885 3.944v13.642c.001 5.113-4.16 9.272-9.272 9.272M6.403 181.755h.227l-1.12 1.526c-.932 1.27-1.424 2.77-1.424 4.336v13.642c0 4.056 3.298 7.354 7.354 7.354h226.38c4.055 0 7.354-3.3 7.354-7.354v-13.642c0-1.565-.492-3.063-1.424-4.336l-1.12-1.526h.232L126.6 5.035c-.467-.613-1.474-1.548-2.144-1.548-.133 0-.314.037-.544.312L6.403 181.755z"/><path d="M125.7 19.43L18.688 181h187.585l-46.043-71.624h23.02z" fill-rule="evenodd"/></g><path fill-rule="evenodd" fill="#ee3331" d="M126.548 30.515v146.657h72.05l-46.043-71.623h22.596z"/><path fill-rule="evenodd" d="M155.332 83.673a10.22 10.22 0 0 1-6.611 8.233 3.74 3.74 0 0 0 .242-1.318 3.75 3.75 0 0 0-3.748-3.748c-2.07 0-3.746 1.678-3.746 3.748a3.7 3.7 0 0 0 .242 1.318c-3.504-1.28-6.107-4.425-6.613-8.233a10.33 10.33 0 0 0-.221 2.133 10.34 10.34 0 0 0 10.338 10.339 10.34 10.34 0 0 0 10.338-10.339 10.47 10.47 0 0 0-.221-2.133m-7.232 55.11l1.744 2.5 2.5-1.744.788 2.936 2.937-.787-.264 3.03 3.028.265-1.285 2.756 2.755 1.285-2.148 2.15 2.148 2.15-2.755 1.286 1.285 2.756-3.028.264.264 3.03-2.937-.786-.788 2.937-2.5-1.746-1.744 2.492-1.744-2.492-2.492 1.746-.787-2.937-2.938.786.268-3.03-3.032-.264 1.286-2.756-2.756-1.286 2.15-2.15-2.15-2.15 2.756-1.285-1.286-2.756 3.032-.265-.268-3.03 2.938.787.787-2.936 2.492 1.744z" fill="#fff"/><path d="M87.015 187.687c-1.895.075-2.63.397-2.806 1.542-.104.77-.314 1.938-.314 4.125v9.866H82.2l-14.585-12.376h-.104v5.6c0 2.187.175 3.28.28 4.026.177 1.094.772 1.565 3.366 1.64v.87h-8.6v-.87c1.963-.102 2.77-.498 2.9-1.566.14-.82.35-1.914.35-4.1v-5.194c0-1.615-.07-2.088-.735-2.658-.632-.598-1.438-.795-2.9-.896v-.87h6.484l13.394 10.9h.14v-4.373c0-2.188-.2-3.355-.28-4.076-.176-1.07-.9-1.5-3.47-1.6v-.87h8.555v.87zm39.255 15.283v-.87c2.63-.198 2.84-.373 2.807-2.66l-.074-9.568h-.174l-7.748 12.924h-.982l-7.15-12.676h-.14l-.42 6.488c-.142 2.063-.142 3.23 0 4 .14 1.118.84 1.342 3.153 1.5v.87h-8.413v-.87c1.964-.124 2.63-.57 2.84-1.44.2-.795.492-2.088.737-4.698l.56-4.896c.28-2.832.035-3.18-2.98-3.38v-.87h7.256L122.3 197.7l6.87-10.885h7.05v.87c-2.807.2-2.943.397-2.875 2.46l.314 9.294c.07 2.286.246 2.46 2.98 2.66v.87h-10.38zm49.776 0v-.87c2.07-.224 2.246-.522 1.684-1.614l-1.402-2.8h-6.73l-1.264 2.658c-.5 1.193-.42 1.54 2.14 1.765v.87h-7.852l.035-.87c2.313-.198 2.734-.472 3.9-2.56l7.188-12.773 1.787-.324 6.697 12.947c1.2 2.188 1.646 2.512 3.855 2.7v.87h-10.028zm-2.978-11.978h-.105l-2.77 5.367h5.47l-2.595-5.367z" fill="#2761ae"/></svg>