<svg xmlns="http://www.w3.org/2000/svg" width="169" height="172" viewBox="0 0 168.269 171.635"><g fill="#2a3a94"><path d="M5.406 132.92h72.782l.054-.088c-.06-.033-.125-.058-.178-.1l-3.55-2.68-10.47-7.868-9.088-6.86a.93.93 0 0 0-.51-.186l-23.734-.005c-.162 0-.35.066-.484.16l-14.112 10-10.7 7.626M48.34 79.283v2.606c.003 1.114.054 2.23-.235 3.325-.086.33-.228.442-.583.442l-12.128-.01c-.667 0-1.4-.168-1.983.054-.596.227-1.046.84-1.56 1.283l-.28.237-14 12.436h47.2l-.46-.43-4.435-3.666-8.03-6.548c-.37-.298-.454-.625-.47-1.047L51.07 79.9c-.007-.2-.046-.397-.072-.608H48.34zm-43.248 60.22h76.025c.007-.1.023-.156.015-.222-.12-.96.16-1.8.77-2.54l1.434-1.724c.627-.764.905-1.635.754-2.62-.088-.58-.3-1.093-.795-1.4-.297.438-.534.887-.86 1.254-.673.756-1.622 1.07-2.53 1.424-.764.3-1.488.662-2.366.662-9.107-.008-18.215.018-27.324.035l-8.616.03-36.43.062c-.525 0-.882-.26-1.04-.752-.086-.27-.116-.556-.192-.828-.095-.338-.212-.672-.33-1.045-1.004.623-1.423 1.502-1.7 2.48-.27.948-.023 1.68.816 2.2.436.27.917.468 1.377.703.846.433 1.1.9 1.018 1.842-.012.135-.015.27-.024.438m47.84-78.222h23.66l-.54-3.17-21.97.001c-.2 0-.422-.057-.5.266l-.66 2.903m9.68-45.5l4.483-.165v-.722c.003-.556.296-.883.857-.925.257-.02.516-.003.775-.004h1.05V10.73h-.518c-.476-.001-.954.033-1.424-.015-.427-.044-.743-.25-.832-.75-.12-.666-.316-1.318-.47-1.978L65.193 2.28c-.027-.115-.192-.265-.305-.273-.1-.008-.22.15-.316.248-.042.044-.048.125-.064.2l-1.936 7.616c-.112.457-.323.58-.75.583l-1.947.1v3.108c.657.07 1.312.033 1.9.227.7.24.836.938.84 1.705M54.378 55.27H75.34l-.577-3.038h-18.94c-.897 0-.9-.003-1.082.864l-.375 2.176m.903-5.3h18.945c-.022-.184-.022-.345-.06-.496l-.398-1.58c-.052-.342-.18-.404-.5-.404l-15.604.007c-.5 0-.98.014-1.47-.004-.27-.01-.403.04-.456.352l-.466 2.124m17.507-7.212h-15.84l-.35 2.273 16.708-.153-.516-2.12m-15.234-2.666H72.16l-.185-1.204c-.023-.426-.218-.52-.613-.518l-13.505.003-.284 1.322c-.024.12-.024.243-.04.397m20.334 27.22l.163-1.58c.014-1.08-.506-1.712-1.563-1.9-1.156-.216-2.302.007-3.45.132-1.116.12-2.23.347-3.426.044l3.12 3.2a.47.47 0 0 0 .287.118l4.867.004m-17.752-3.365l-6.922.001c-.807 0-.816 0-1 .767l-.546 2.52c.07.032.096.052.12.053l4.936.001a.52.52 0 0 0 .322-.13l3.08-3.2m4.344 32.208c.438.136.64.007.724-.4.13-.63-.166-1.1-.5-1.573-.26-.356-.562-.683-.87-1.05.95-.53 1.604-1.282 1.963-2.254.225-.608.35-1.252.528-1.877.193-.674-.06-1.205-.555-1.63-1.616-1.398-4.247-.53-4.628 1.55-.15.812-.08 1.367.5 1.7l1.144.62a.31.31 0 0 0 .259-.014l1.044-.685c.43-.308.656-.317 1.147.065-.475.473-.9 1.008-1.416 1.383-.97.695-1.07 1.45-.14 2.348l.313.318c.403.406.674.857.478 1.48m-6.023-60.3c4.3.056 8.528.168 12.754-.12-.05-.353-.135-.66-.125-.964.013-.415-.198-.444-.527-.442l-8.3.005c-1.048 0-2.096-.008-3.144.004-.12.001-.322.08-.348.162-.13.424-.2.862-.32 1.354M59.3 32.1h6.13l4.534.006c.34.004.447-.132.387-.435l-.2-.805H59.455L59.32 32.1M43.694 83.4L41 78.24l-2.7 5.15h5.373zM60.083 28h9.558l-.208-.77c-.06-.322-.213-.426-.555-.424l-8.246.008c-.132 0-.264.014-.42.022L60.083 28"/><path d="M55.737 86.803l-.272-.392c-.454-.62-.44-.695.222-1.13l.07-.043c.58-.35.85-.232 1 .44.23 1.035.458 1.108 1.297.457.307-.24.638-.46 1-.623.34-.16.625.047.87.28.217.205.312.43.155.723-.136.255-.025.386.25.4l.408-.004c.44-.03.556-.373.677-.712.114-.318.068-.56-.246-.76l-1.307-.9c-.1-.064-.286-.072-.394-.024-.574.256-1.16.345-1.785.272l-2.225-.187c-.903-.02-1.5.5-1.98 1.256.772.28 1.137 1.405 2.27.96m16.967.7c.5-.125.954-.186 1.355-.348s.457-.477.216-.822c-.377-.544-.873-.902-1.56-.88a11.39 11.39 0 0 0-1.416.128c-.883.14-1.753.232-2.584-.223-.077-.043-.192-.083-.266-.056-.857.32-1.6.764-1.895 1.48.263.354.42.663.665.862.15.123.5.174.653.086.254-.14.126-.428-.03-.6-.28-.3-.174-.53.108-.74.63-.47 1.3-.75 1.5.413.055.322.266.495.566.57.316.078.554-.052.736-.308s.328-.55.558-.748c.197-.17.506-.34.74-.3.443.06.82.888.643 1.497M60.808 24.562H68.9l-.156-1.024h-.5l-6.36.002c-1 0-1-.001-1.07 1.022M53.6 83.56l1.173-.63c1.062-.462 2.206-.4 3.327-.484.636-.048 1.174.147 1.646.565.204.18.4.38.632.512.36.203.738.38 1.125.517.217.078.327-.062.35-.312.035-.396-.167-.626-.448-.845-1.092-.85-2.356-1.233-3.7-1.305-1.426-.075-2.8.2-4.002 1.003-.464.3-.48.58-.093.978m14.555-62.1l-.104-.656c-.06-.386-.233-.557-.672-.55l-5.26.014-.465.02-.12 1.17h6.623zm6.495 48.4l-.002 1.208c-.01.33.084.485.46.476l3.348-.017c.103 0 .206-.022.327-.035v-.435c.01-1.042-.284-1.364-1.317-1.342l-2.816.145m-20.167-.068c-.934 0-1.817-.02-2.7.005-1.03.032-1.453.75-1.048 1.694h3.747v-1.7zm12.784-52.6c-.458 0-.903.012-1.348-.003l-2.437-.1c-.875-.001-1.43.516-1.394 1.238.05.012.1.033.152.033l4.97.01c.292.002.313-.167.274-.37-.054-.264-.138-.52-.216-.807m-.515 66.994c.26-.054.54-.066.776-.17l1.56-.784c1.427-.8 2.863-.748 4.274-.005.48.253.885.65 1.33.987.357-.33.35-1.03-.084-1.26-.47-.25-.962-.525-1.476-.617-1.3-.23-2.593-.2-3.867.163-.995.3-1.874.77-2.513 1.687m-1.07-1.957c.042-.64-.528-1.197-1.3-1.263-.567-.05-1.232.596-1.282 1.248-.046.6.585 1.106 1.464 1.173.484.037 1.07-.574 1.107-1.158"/><g fill-rule="evenodd"><path d="M81.028 98.094l2.105-1.675 26.688-21.307c.518-.413 1.154-.35 1.754-.4 1.4-.134 2.67.363 3.982.696.955.243 1.702.7 2.396 1.4l24.313 23.986c.214.212.346.208.564.012l6.763-5.97c.392-.352.683-.34 1.144-.184 1.13.383 2 1.162 2.922 1.832l11.88 8.573c.305.22.434.437.43.825l-.012 6.022-2.305-1.703-12.353-9.23c-.097-.072-.22-.188-.312-.173-.67.12-1.418.07-1.95.582L138.1 112.02c-3.965 4.014-7.8 8.15-11.7 12.236l-1.75 1.884c-.238.242-.142.48-.1.718.298 1.34.894 2.558 1.62 3.713 1.062 1.7 2.26 3.313 3.17 5.08 2.72 5.272 4.943 10.758 6.6 16.46 1 3.428 1.87 6.887 2.54 10.396l1.033 5.685c.03.17.03.345.047.55l-4.305.226-.504-2.603a125.18 125.18 0 0 0-2.574-10.771c-1.44-5.022-3.242-9.907-5.478-14.63-2.028-4.285-4.422-8.358-7.188-12.213-3.058-4.26-6.555-8.127-10.4-11.674-4.486-4.126-9.516-7.4-15.14-9.77-3.455-1.45-7.035-2.486-10.722-3.152-2.46-.443-4.94-.77-7.442-.82-2.106-.043-4.214-.008-6.414-.008l.556-.682c.733-.863 1.434-1.744 1.728-2.875.027-.104.195-.234.307-.246.662-.06 1.326-.112 2-.12 1.06-.01 2.12.066 3.15-.3.426-.147.6-.354.607-.848l-.014-18.734h3.06c.105 6.15-.182 12.3.235 18.554m31.55-22.338c-1.35.026-2.27.297-3.256.974-1.377.945-2.77 1.877-4.1 2.886-.876.663-1.516 1.548-1.906 2.6-.244.658-.2 1.175.313 1.728 1.012 1.077 2.023 2.128 3.377 2.8a1.05 1.05 0 0 0 1.072-.02c.742-.413 1.306-1 1.832-1.66.36-.442.73-.88 1.125-1.288.308-.317.724-.4 1.133-.248.387.156.744.384 1.1.588s.715.45 1.094.623c.64.286 1.263.13 1.742-.376 1.1-1.164 2.107-1.267 3.385-.32.426.315.82.674 1.224 1.017.653.554 1.274 1.158 2.12 1.416.15.047.38.063.492-.017.416-.295.7-.692.666-1.234-.008-.132-.072-.3-.172-.38-1.338-1.108-2.42-2.46-3.584-3.735-1.125-1.235-2.265-2.466-3.496-3.6-1.2-1.098-2.65-1.748-4.172-1.752M5.406 132.92l3.164-2.258 7.545-5.367 14.123-10c.135-.094.322-.16.484-.16l23.734.005a.92.92 0 0 1 .511.186l9.088 6.86 10.47 7.868 3.55 2.68c.053.04.118.065.178.1l-.054.088H5.406z"/><path d="M48.34 79.283h2.657l.072.608.298 8.074c.015.422.1.75.47 1.047l8.03 6.548 4.435 3.666c.142.116.268.25.46.43H17.564l.5-.445 13.8-12.227c.513-.443.963-1.056 1.56-1.283.583-.222 1.316-.054 1.983-.054l12.128.01c.355 0 .497-.113.583-.442.3-1.096.238-2.2.235-3.325v-2.607"/></g></g><g fill-rule="evenodd"><path d="M5.092 139.503l.024-.437c.083-.942-.172-1.4-1.018-1.842l-1.377-.703c-.84-.52-1.085-1.253-.816-2.2.276-.98.695-1.858 1.7-2.48l.33 1.045.192.828c.157.492.514.752 1.04.752l7.962-.025 28.468-.037 8.616-.03 27.324-.035c.878 0 1.602-.362 2.366-.662.9-.354 1.858-.668 2.53-1.424.327-.367.564-.815.86-1.254.496.3.707.822.795 1.4.15.985-.127 1.856-.754 2.62l-1.434 1.724c-.6.74-.9 1.578-.77 2.54.008.065-.008.132-.015.222H5.092zm64.953-41.746c.434 1.064.147 1.973-.27 2.86-.482 1.027-1.115 1.88-2.22 2.377-1.037.468-1.163.916-.867 2.117-.673.094-1.335.246-2 .265-1.045.028-2.093-.026-3.14-.065a.91.91 0 0 0-.752.3l-7.22 7.318c-.23.232-.456.322-.782.322l-20.136-.018a1.12 1.12 0 0 1-.66-.218l-8.715-7.058c-.605-.504-1.26-.424-1.913-.477l-4.477-.27c-.094-.007-.186-.03-.3-.046-.005-.045-.018-.082-.01-.115.15-.68.053-.848-.604-1.04a3.51 3.51 0 0 1-2.515-4.018c.097-.574.24-1.143.387-1.707.05-.2.148-.387.278-.533.26-.295.525-.27.702.074l.874 1.793c.242.478.535.932 1.045 1.156.28.123.594.23.893.23H65.36c.208 0 .447-.098.618-.22l4.067-3.022m-41.795 7.98l.335.363 4.284 4.314a.89.89 0 0 0 .712.297l2.124-.004 16.013-.01c.205-.002.47-.075.608-.215l4.236-4.357c.093-.098.165-.22.294-.4H28.25z" fill="#ee2f3a"/><g fill="#2a3a94"><path d="M52.934 61.28l.66-2.903c.068-.323.28-.266.5-.266l21.97-.001.54 3.17h-23.66zm9.67-45.5c-.005-.767-.132-1.466-.84-1.705-.577-.194-1.232-.157-1.9-.227V10.74l1.947-.1c.426-.004.637-.126.75-.583l1.936-7.616c.016-.065.022-.146.064-.2.096-.1.216-.256.316-.248.113.008.278.158.305.273l1.332 5.708.47 1.978c.1.5.405.707.832.75.47.048.948.014 1.424.015h.518v3.235h-1.05c-.26.001-.518-.015-.775.004-.56.042-.854.37-.857.925v.722l-4.483.165m-8.225 39.5l.375-2.176c.17-.867.185-.864 1.082-.864l18.94.002.577 3.038H54.368zm.902-5.308l.466-2.124c.053-.313.186-.362.456-.352l1.47.004 15.604-.007c.312 0 .44.062.5.404.083.533.267 1.05.398 1.58.037.15.037.312.06.496H55.27z"/><path d="M72.778 42.747l.515 2.12-16.708.153.35-2.273h15.842zm-15.243-2.654l.04-.397.284-1.322 13.505-.003c.395-.001.6.092.613.518.022.4.117.777.185 1.204H57.535zm20.332 27.22c-1.66 0-3.263.001-4.867-.005a.45.45 0 0 1-.287-.117L69.592 64c1.196.303 2.3.077 3.426-.044 1.147-.125 2.293-.348 3.45-.132 1.057.197 1.577.828 1.563 1.9-.007.512-.102 1.02-.163 1.58m-17.755-3.348l-3.08 3.2c-.075.077-.213.13-.322.13-1.646.006-3.3.002-4.936-.001-.025-.001-.05-.02-.12-.053l.546-2.52c.175-.767.184-.767 1-.767l6.922-.001"/><path d="M64.457 96.177c.197-.625-.075-1.076-.478-1.48l-.313-.318c-.93-.896-.828-1.65.14-2.346.527-.377.94-.9 1.415-1.384-.5-.383-.717-.373-1.147-.065l-1.044.685c-.066.04-.2.047-.258.013l-1.144-.617c-.592-.342-.66-.897-.5-1.7.382-2.082 3.013-2.95 4.63-1.554.495.43.748.957.554 1.634l-.528 1.876c-.36.97-1.013 1.723-1.962 2.254l.868 1.05c.336.464.633.945.5 1.572-.083.396-.285.525-.723.4m.634-6.5l.198-.033c0-.4.052-.785-.013-1.162-.12-.7-1.146-1.127-1.75-.746-.118.074-.168.254-.25.387.123.048.245.137.368.137.432 0 .703.238.918.572l.528.845m-2.943-.943l-.097.582c-.15.467.08.787.423 1.035.116.084.373.13.466.06a3.18 3.18 0 0 0 .673-.692c.164-.228.172-.448-.216-.506-.22-.032-.43-.153-.642-.235l-.607-.245m-3.732-52.886l.32-1.354c.026-.083.227-.16.348-.162l11.433-.01c.33-.002.54.027.527.442-.01.304.075.6.125.964-4.227.287-8.445.175-12.754.12m.896-3.787l.134-1.233H70.18l.2.805c.06.303-.048.44-.387.435l-4.534-.006h-6.13zM43.694 83.4H38.32L41 78.24l2.684 5.15m16.4-55.4l.13-1.165.42-.022 8.246-.008c.342-.002.495.102.555.424.046.25.13.494.208.77h-9.558zm-4.346 58.803c-1.135.446-1.5-.68-2.27-.96.472-.766 1.078-1.277 1.98-1.256.743.017 1.486.1 2.225.187a3.34 3.34 0 0 0 1.785-.272c.108-.048.295-.04.394.024l1.307.9c.314.2.36.442.246.76-.12.34-.237.68-.677.712l-.408.004c-.276-.004-.387-.135-.25-.4.157-.294.062-.518-.155-.723-.246-.234-.53-.442-.87-.28-.35.164-.682.384-1 .623-.84.65-1.066.578-1.297-.457-.15-.67-.42-.8-1-.44l-.07.043c-.662.436-.676.5-.222 1.13l.272.392"/><path d="M72.704 87.526c.177-.6-.2-1.438-.643-1.495-.234-.03-.543.14-.74.3-.23.197-.378.492-.558.748s-.42.386-.736.308c-.3-.075-.5-.248-.566-.57-.2-1.164-.88-.883-1.5-.413-.282.2-.387.432-.108.74.155.173.283.462.03.6-.162.088-.502.037-.653-.086-.245-.2-.402-.508-.665-.862.284-.718 1.038-1.16 1.895-1.48.074-.027.2.013.266.056.83.455 1.7.364 2.584.223a11.39 11.39 0 0 1 1.416-.128c.688-.022 1.184.336 1.56.88.24.346.185.663-.216.822s-.844.22-1.355.346M60.808 24.562c.078-1.023.078-1.022 1.07-1.022l6.868-.002.156 1.024H60.8zM53.6 83.56c-.388-.397-.37-.667.093-.978 1.212-.813 2.576-1.078 4.002-1.003 1.353.072 2.617.455 3.7 1.305.28.22.483.45.448.845-.022.25-.132.4-.35.312-.387-.137-.766-.314-1.125-.517-.232-.13-.428-.333-.632-.512a2.12 2.12 0 0 0-1.646-.565c-1.12.084-2.265.022-3.327.484-.394.17-.76.405-1.173.63m14.575-62.1h-6.623l.12-1.17.465-.02 5.26-.014c.44-.007.612.164.672.55l.104.656"/><path d="M74.66 69.85l2.816-.145c1.033-.022 1.328.3 1.317 1.342v.435l-.327.035c-1.117.005-2.233-.008-3.348.017-.376.01-.47-.147-.46-.476l.002-1.208m-20.167-.058v1.7h-3.747c-.405-.943.02-1.662 1.048-1.694l2.7-.005m12.783-52.6l.216.807c.04.202.018.37-.274.37l-4.97-.01c-.052 0-.103-.02-.152-.033-.036-.722.52-1.24 1.394-1.238l2.437.1 1.348.003m-.513 66.985c.64-.918 1.518-1.398 2.513-1.687 1.274-.372 2.577-.392 3.867-.163.514.092 1.007.366 1.476.617.433.232.44.93.084 1.26-.444-.336-.848-.734-1.33-.987-1.4-.743-2.847-.786-4.274.005l-1.56.784c-.237.104-.516.116-.776.17m-1.07-1.956c-.038.584-.623 1.195-1.107 1.158-.88-.067-1.5-.573-1.464-1.173.05-.652.715-1.297 1.282-1.248.76.067 1.33.624 1.3 1.263"/></g><path fill="#ee2f3a" d="M82.12 74.14l-8.317-.338c-.363-.013-.5-.088-.5-.48l.01-2.123a.8.8 0 0 0-.269-.535l-8.736-6.842c-.263-.207-.408-.176-.647.032l-7.513 6.464c-.307.262-.386.53-.375.917.02.743-.006 1.5-.057 2.232-.027.388-.265.553-.696.55l-7.434-.01c-.93 0-.928 0-.927.915v3.343h35.768v-4.08l-.317-.047M69.2 73.083l-9.8.158-.078-.1 4.893-5.573 5.023 5.403-.048.12"/><path d="M65.1 89.667l-.528-.847c-.215-.333-.486-.57-.918-.57-.123 0-.245-.088-.367-.137.08-.132.13-.312.248-.386.604-.38 1.63.045 1.75.745.064.377.012.773.012 1.162l-.198.034m-2.94-.944l.607.244c.213.082.42.203.642.235.388.058.38.278.216.506a3.2 3.2 0 0 1-.673.692c-.093.068-.35.023-.466-.06-.342-.248-.572-.568-.423-1.035.048-.15.054-.317.097-.58m-33.6 54.902v14.13l-16.956-14.13H4.76v25.104h6.835v-13.946l16.956 13.817v.13h6.836V143.63zm51.593 0H49.517v6.834h11.895v18.27h6.835v-18.27h11.896zm42.522 9.912v-7.468c0-1.35-1.06-2.443-2.365-2.443H94.667v25.105H120.3c1.306 0 2.365-1.134 2.365-2.53v-7.736c0-1.313-.937-2.38-2.133-2.507 1.197-.123 2.133-1.152 2.133-2.42m-7.145 8.03a.79.79 0 0 1-.791.789h-12.57v-3.154h12.568a.79.79 0 0 1 .791.787v1.578zm0-9.414a.79.79 0 0 1-.791.789h-12.57v-3.155h12.568a.79.79 0 0 1 .791.788v1.578z" fill="#2a3a94"/></g></svg>