<svg xmlns="http://www.w3.org/2000/svg" width="158" height="213" viewBox="0 0 157.211 212.98"><path fill="#138a44" d="M130.63 104.954c0 35.42-28.713 64.136-64.134 64.136S2.36 140.375 2.36 104.954s28.712-64.136 64.134-64.136 64.134 28.713 64.134 64.136"/><path fill="#fff" d="M2.362 104.954c0 4.693.51 9.27 1.465 13.677h125.338c.957-4.407 1.465-8.983 1.465-13.677a64.34 64.34 0 0 0-2.02-16.034H4.382a64.2 64.2 0 0 0-2.02 16.034"/><path d="M87.717 40.348l8.723-26.882S81.82 5.448 32.07 6.864c0 0 85.355-23.344 122.844 29.002 0 0 4.953 9.432-6.838 17.92 0 0-17.2-23.813-33.715-33l-12.498 25.23M26.65 211.534s8.017-32.068 12.495-39.614 8.25-.472 7.546 2.595-12.498 24.52-20.04 37.02" fill="#138a44"/><g fill="#fff"><path d="M24.408 69.468v-2.83c-.4 0-.688.184-.72.204l.447-.35c12.93-10.303 21.302-7.805 26.048-3.893l-1.8 2.184c-5.647-4.655-13.422-3.3-22.484 3.92-.693.557-.957.765-1.5.765"/><path d="M99.413 66.904c-.426-2.216-3.764-5.307-7.87-6.193-4.494-.972-8.096-2.45-11.676-4.797-1.94-1.275-5.037.115-6.697.863-.94.423-1.414.635-2 .52-.865-.173-1.2-.92-1.448-1.516-.508-1.174-1.453-3.353-5.43-4.27-5.063-1.165-7.865 3.53-7.894 3.58l-.495.846-.967-.165c-7.005-1.195-9.9 5.36-10 5.64l-2.6-1.095c1.238-2.962 5.32-8.144 12.175-7.458 1.693-2.273 5.4-5.263 10.436-4.104 4.803 1.1 6.442 3.845 7.17 5.404 2.032-.914 6.123-2.705 9.32-.6 3.275 2.147 6.586 3.505 10.725 4.397 4.93 1.067 9.723 5.743 10.428 9.4l-3.16-.44z"/><path d="M90.967 74.53c-.7-1.22-3.025-4.503-5.3-4.975-2.2-.462-5.052 1.86-6.076 2.83 0 0-.402 1.207-.84 1.282-.752.134-1.472-.78-1.472-.78-10.297-6.792-17.727.235-18.036.54l-1.984-2.02c.087-.1 8.87-8.522 20.662-1.458 1.6-1.326 5.148-3.818 8.32-3.164 2.352.487 4.346 2.46 5.64 4.086 1.4-2.55 4.04-5.157 8.184-4.574 7.256 1.017 7.818 5.48 7.818 6.826h-2.83c0-1.222-.697-3.368-5.385-4.023-4.55-.63-6.035 4.848-6.094 5.083 0 0-.104 1.03-1.252 1.253s-1.347-.905-1.347-.905"/><path d="M112.9 76.264c-2.98-2.87-9.12-5.847-9.184-5.876l1.23-2.55c.268.13 6.605 3.2 9.918 6.387l-1.963 2.038zm-38.317 85.102c-4.367 0-8.487-.3-11.172-.535-7.782-.706-27.405-5.028-28.238-5.214l-1.533-.34 1.086-3.258c.524-1.568.603-4.565.187-6.972-.506-2.902-.646-4.235 1.04-8.114 1.558-3.603 5.7-10.07 5.884-10.342l.188-.235c.293-.293.677-.442 1.14-.442.58 0 1.65.244 4.227.846 4.056.947 10.2 2.38 15.938 2.96 1.354.14 2.886.207 4.55.207 7.167 0 15.128-1.267 18.218-1.8l.197-.033a1.77 1.77 0 0 1 .32-.028c1.43 0 1.906 1.226 2.635 3.08l.822 2.037c.766 1.807 2.46 3.46 4.254 5.213.932.9 1.895 1.854 2.8 2.9 3 3.375 3.4 7.82 3.416 8.008l.043.514-.295.423c-.195.27-4.795 6.738-11.006 9.222-3.2 1.277-8.15 1.925-14.7 1.925M37.33 153.2c4.866 1.052 19.98 4.247 26.35 4.826 2.628.24 6.653.523 10.914.523 6.116 0 10.837-.595 13.66-1.725 4.582-1.833 8.326-6.37 9.418-7.8-.186-1.102-.8-3.8-2.643-5.875-.848-.957-1.773-1.86-2.672-2.736-2.004-1.956-3.895-3.807-4.883-6.137-.35-.828-.623-1.527-.85-2.108l-.48-1.183c-3.44.6-11.196 1.773-18.257 1.773-1.76 0-3.388-.074-4.836-.22-5.93-.6-12.166-2.057-16.296-3.02l-2.987-.672c-1.127 1.792-4.035 6.497-5.212 9.215-1.413 3.258-1.282 4.012-.848 6.504.504 2.9.387 6.334-.287 8.354l-.092.274z"/><path d="M47.584 156.613l-2.73-.746s-.024.046-.03.15c0-.012.064-1.257-1.75-4.788-1.754-3.422-5.408-3.144-5.563-3.13l-.274-2.817c.23-.022 5.705-.507 8.357 4.65 2.247 4.38 2.14 6.13 1.992 6.68"/><path d="M64.497 159.307c-.03-.343-.87-8.53-8.9-9.44-7.844-.896-9.247 1.93-9.26 1.958l-2.637-1.02c.183-.508 2.088-4.902 12.22-3.75 8.274.94 11.068 8.27 11.386 12.015l-2.82.238z"/><path d="M83.87 160.2l-1.572-.78c-.027-.057-2.715-5.898-7.744-6.605-4.8-.666-7.546 4.943-7.57 4.995l-2.36-1.446c.14-.3 3.464-7.313 10.32-6.348 3.737.523 6.387 3.006 8.002 5.114.393-1.893.846-4.285 1.127-6.38.145-1.054.236-2.12.326-3.15.3-3.493.574-6.5 2.574-8.042 1.95-1.5 2.697-1.865 2.928-1.958l1.883.15.883 19.968-2.828.122-.715-16.358-.434.325c-1.008.77-1.244 3.452-1.47 6.043l-.34 3.28c-.592 4.38-1.86 9.808-1.912 10.036L83.87 160.2z"/></g><path d="M23.408 97.05v18.752H18.9V97.05h-6.418v-3.5H29.83v3.5zm62.538 18.752l-1.428-4.393H75.46L74 115.802h-4.846l7.686-22.24h6.833l7.688 22.24h-5.406zM80.05 97.645l-3.417 10.347h6.792L80.05 97.645zm-26.1 18.157l-1.43-4.393h-9.058L42 115.802h-4.844l7.686-22.24h6.833l7.688 22.24H53.94zm-5.896-18.157l-3.42 10.347h6.796l-3.375-10.347zm66.544 18.157l-6.607-13.274-1.363-2.858v16.132H102.4V93.56h5.7l6.742 13.358 1.192 2.603V93.56h4.228v22.24z" fill="#138a44"/><path fill="#fff" d="M90.016 75.745h-44.74v1.327h9.756v2.74s-2.4 0-4.6.264-3.303 1.65-3.214 3.214 2.566 3.653 6.957 3.685 6.66-1.24 6.66-1.24l-1.533-1.208s-5.6 1.65-8.106 1.062-3.328-2.918-.646-3.655 7.07-.383 7.07-.383v-4.48h7.046v8.546l2.3 1.3v-9.845h16.62v2.505H74.1s-.53-.03-.884.5-.03 1.1.796 1.857l1.857 1.62s.883.293.9-.53v-2.182h6.748v4.864l2.416 1.237V77.07h4.07v-1.328z"/></svg>